<?xml version="1.0" standalone="no"?>
<!DOCTYPE svg PUBLIC "-//W3C//DTD SVG 20010904//EN"
 "http://www.w3.org/TR/2001/REC-SVG-20010904/DTD/svg10.dtd">
<svg version="1.0" xmlns="http://www.w3.org/2000/svg"
 width="256.000000pt" height="256.000000pt" viewBox="0 0 256.000000 256.000000"
 preserveAspectRatio="xMidYMid meet">

<g transform="translate(0.000000,256.000000) scale(0.100000,-0.100000)"
fill="#000000" stroke="none">
<path d="M1165 2507 c-153 -51 -225 -128 -348 -374 -44 -86 -53 -113 -44 -123
10 -10 9 -12 -5 -7 -13 5 -55 -72 -222 -407 -113 -227 -206 -416 -206 -419 0
-3 -24 -56 -54 -118 -134 -283 -156 -351 -156 -490 0 -153 57 -279 174 -387
61 -55 171 -114 246 -131 66 -15 171 -13 253 5 136 30 267 108 409 243 l73 69
75 -70 c108 -100 250 -192 345 -225 70 -24 95 -27 200 -27 102 0 129 3 180 23
141 56 244 149 305 276 52 110 63 168 50 269 -17 122 -35 177 -115 341 -40 83
-114 238 -165 345 -171 362 -479 967 -524 1027 -54 74 -115 124 -192 160 -48
22 -76 28 -149 30 -56 2 -105 -2 -130 -10z m212 -199 c54 -16 114 -86 167
-194 529 -1070 668 -1367 686 -1464 17 -92 -13 -210 -67 -272 -8 -9 -12 -22
-8 -27 3 -6 1 -11 -5 -11 -6 0 -32 -14 -57 -31 -73 -51 -147 -72 -223 -65
-136 12 -242 68 -374 196 l-89 86 64 80 c275 340 324 687 125 886 -178 178
-473 170 -646 -18 -178 -193 -128 -514 136 -879 l65 -90 -89 -85 c-101 -96
-175 -144 -271 -177 -176 -60 -355 11 -438 172 -31 60 -41 161 -24 232 23 93
143 352 441 958 228 466 297 594 344 643 68 73 156 93 263 60z m-15 -893 c52
-18 101 -63 129 -118 45 -88 17 -253 -71 -412 -38 -70 -136 -215 -145 -215
-10 0 -126 182 -164 258 -55 110 -75 189 -68 274 6 73 30 129 74 170 57 55
158 72 245 43z"/>
</g>
</svg>
